<svg data-noselect="" viewBox="0 0 220 145" width="600" height="300" preserveAspectRatio="none" version="1.1"
    xmlns="http://www.w3.org/2000/svg" xmlns:xlink="http://www.w3.org/1999/xlink" data-v-5bd6ae12="">
    <defs data-v-5bd6ae12=""></defs>
    <!---->
    <g id="background" data-noselect="" data-v-5bd6ae12="">
        <rect fill="#ffffff00" x="0" y="0" width="600" height="300" data-noselect=""></rect>
    </g>
    <!-- 文字 -->
    <g id="shape_V2Q1v97SSd">
        <g>
            <g>
                <g transform="translate(73,-10) scale(1.4,1.4)">
                    <svg xmlns="http://www.w3.org/2000/svg" version="1.1"
                        xmlns:xlink="http://www.w3.org/1999/xlink" width="600" height="300"
                        viewBox="0 0 1000 400" data-ligature="true" data-parent="shape_V2Q1v97SSd">
                        <g data-role="text" data-width="621.2130000000001" data-height="95">
                            <g transform="translate(0 76) ">
                                <path
                                    d="M44.20-53.03L56.92-53.03L33.71 0L22.42 0L0.08-53.03L12.80-53.03L28.38-13.12L44.20-53.03Z"
                                    fill="#10abbd" stroke="#10abbd" stroke-width="0.132" data-glyph-w="57.081"
                                    data-glyph-h="79.5" data-glyph-ascender="68.2905" data-glyph-descender="-11.2095"
                                    data-kerning="0"
                                    style="transform: scale(1); opacity: 1; transform-origin: 28.5405px 0px;"></path>
                            </g>
                            <g transform="translate(57.081 76) ">
                                <path
                                    d="M23.05-39.27L23.05-39.27Q33.79-39.27 38.88-33.07L38.88-33.07Q43.57-27.43 43.57-18.84L43.57-18.84Q43.57-9.78 37.68-4.37L37.68-4.37Q32.28 0.56 22.90 0.56L22.90 0.56Q13.20 0.56 7.71-5.01L7.71-5.01Q2.62-10.02 2.62-19.64L2.62-19.64Q2.62-27.75 7.47-33.15L7.47-33.15Q12.88-39.19 23.05-39.27ZM23.13-31.16L23.13-31.16Q13.52-31.16 13.52-19.24L13.52-19.24Q13.52-14.39 15.11-11.85L15.11-11.85Q17.73-7.55 23.21-7.55L23.21-7.55Q32.67-7.55 32.67-19.40L32.67-19.40Q32.67-31.00 23.13-31.16Z"
                                    fill="#10abbd" stroke="#10abbd" stroke-width="0.132" data-glyph-w="46.269"
                                    data-glyph-h="79.5" data-glyph-ascender="68.2905" data-glyph-descender="-11.2095"
                                    data-kerning="0"
                                    style="transform: scale(1); opacity: 1; transform-origin: 23.1345px 0px;"></path>
                            </g>
                            <g transform="translate(103.35 76) ">
                                <path
                                    d="M5.17 0L5.17-38.72L15.82-38.72L15.82 0L5.17 0ZM15.82-42.69L5.17-42.69L5.17-53.03L15.82-53.03L15.82-42.69Z"
                                    fill="#10abbd" stroke="#10abbd" stroke-width="0.132"
                                    data-glyph-w="21.147000000000002" data-glyph-h="79.5" data-glyph-ascender="68.2905"
                                    data-glyph-descender="-11.2095" data-kerning="0"
                                    style="transform: scale(1); opacity: 1; transform-origin: 10.5735px 0px;"></path>
                            </g>
                            <g transform="translate(124.497 76) ">
                                <path
                                    d="M21.15-38.72L31.16-38.72L31.16-53.03L41.74-53.03L41.74 0L23.45 0Q17.89 0 15.03-0.87L15.03-0.87Q8.27-3.02 4.93-9.30L4.93-9.30Q2.62-13.52 2.62-19.64L2.62-19.64Q2.62-29.57 9.30-35.06L9.30-35.06Q13.67-38.72 21.15-38.72L21.15-38.72ZM23.45-8.27L31.16-8.27L31.16-30.45L23.45-30.45Q18.36-30.45 15.74-27.03L15.74-27.03Q13.44-24.17 13.44-19.64L13.44-19.64Q13.44-13.04 17.25-10.18L17.25-10.18Q19.88-8.27 23.45-8.27L23.45-8.27Z"
                                    fill="#10abbd" stroke="#10abbd" stroke-width="0.132"
                                    data-glyph-w="46.984500000000004" data-glyph-h="79.5" data-glyph-ascender="68.2905"
                                    data-glyph-descender="-11.2095" data-kerning="0"
                                    style="transform: scale(1); opacity: 1; transform-origin: 23.4923px 0px;"></path>
                            </g>
                        </g>
                    </svg></g>
            </g>
        </g>
    </g>
    <!--logo -->
    <g id="shape_xBiPSnUTVm">
        <g>
            <g>
                <g transform="translate(8,10) scale(1,1)">
                    <svg version="1.1" id="图层_1" xmlns="http://www.w3.org/2000/svg"
                        xmlns:xlink="http://www.w3.org/1999/xlink" x="0px" y="0px" viewBox="0 0 75 87.8"
                        style="enable-background:new 0 0 75 87.8;" xml:space="preserve" width="106.84391823863061"
                        height="125.0786136180273" class="style-removed" preserveAspectRatio="none"
                        data-parent="shape_xBiPSnUTVm">
                        <g>
                            <polygon points="42.8,0 42.8,6.7 25.5,24 12.8,11.3 24.1,0 	" fill="#5CE1E6"
                                stroke-width="0"></polygon>
                            <polygon points="75,11.3 65.6,20.7 58.9,20.7 45,6.7 45,0 63.7,0 	" fill="#5CE1E6"
                                stroke-width="0"></polygon>
                            <polygon points="24,25.5 6.7,42.8 0,42.8 0,24.1 11.3,12.8 	" fill="#5CE1E6"
                                stroke-width="0"></polygon>
                            <polygon points="42.8,81.1 42.8,87.8 24.1,87.8 12.8,76.5 22.2,67.1 25.5,63.8 	"
                                fill="#5CE1E6" stroke-width="0"></polygon>
                            <polygon points="24,62.3 11.3,75 0,63.7 0,45 6.7,45 	" fill="#5CE1E6" stroke-width="0">
                            </polygon>
                            <polygon points="75,76.5 63.7,87.8 45,87.8 45,81.1 58.9,67.1 65.6,67.1 	" fill="#5CE1E6"
                                stroke-width="0"></polygon>
                            <g>
                                <path d="M65.6,67.1H47.7L45,69.8v18L65.6,67.1L65.6,67.1z M31.1,58.1l-5.6,5.6l-3.3,3.3l20.7,20.7v-18L31.1,58.1z
			 M18,44.9H0l20.7,20.7l3.3-3.3l5.7-5.6L18,44.9z M24,25.5l-3.3-3.3L0,42.8h18l11.7-11.7L24,25.5z M45,0v18l2.7,2.7h18L45,0z
			 M22.2,20.7l3.3,3.3l5.6,5.6L42.8,18V0L22.2,20.7z" fill="#10ABBD" stroke-width="0"></path>
                            </g>
                        </g>
                    </svg></g>
            </g>
        </g>
    </g>
</svg>