<svg data-noselect="" viewBox="0 0 500 145" width="500" height="145" preserveAspectRatio="none" version="1.1"
    xmlns="http://www.w3.org/2000/svg" xmlns:xlink="http://www.w3.org/1999/xlink" data-v-5bd6ae12="">
    <defs data-v-5bd6ae12=""></defs>
    <!---->
    <g id="background" data-noselect="" data-v-5bd6ae12="">
        <rect fill="#ffffff00" x="0" y="0" width="600" height="300" data-noselect=""></rect>
    </g>
    <!-- 文字 -->
    <g id="shape_V2Q1v97SSd">
        <g>
            <g>
                <g transform="translate(73,-10) scale(1.4,1.4)">
                    <svg xmlns="http://www.w3.org/2000/svg" version="1.1"
                        xmlns:xlink="http://www.w3.org/1999/xlink" width="600" height="300"
                        viewBox="0 0 1000 400" data-ligature="true" data-parent="shape_V2Q1v97SSd">
                        <g data-role="text" data-width="621.2130000000001" data-height="95">
                            <g transform="translate(0 76) ">
                                <path
                                    d="M44.20-53.03L56.92-53.03L33.71 0L22.42 0L0.08-53.03L12.80-53.03L28.38-13.12L44.20-53.03Z"
                                    fill="#10abbd" stroke="#10abbd" stroke-width="0.132" data-glyph-w="57.081"
                                    data-glyph-h="79.5" data-glyph-ascender="68.2905" data-glyph-descender="-11.2095"
                                    data-kerning="0"
                                    style="transform: scale(1); opacity: 1; transform-origin: 28.5405px 0px;"></path>
                            </g>
                            <g transform="translate(57.081 76) ">
                                <path
                                    d="M23.05-39.27L23.05-39.27Q33.79-39.27 38.88-33.07L38.88-33.07Q43.57-27.43 43.57-18.84L43.57-18.84Q43.57-9.78 37.68-4.37L37.68-4.37Q32.28 0.56 22.90 0.56L22.90 0.56Q13.20 0.56 7.71-5.01L7.71-5.01Q2.62-10.02 2.62-19.64L2.62-19.64Q2.62-27.75 7.47-33.15L7.47-33.15Q12.88-39.19 23.05-39.27ZM23.13-31.16L23.13-31.16Q13.52-31.16 13.52-19.24L13.52-19.24Q13.52-14.39 15.11-11.85L15.11-11.85Q17.73-7.55 23.21-7.55L23.21-7.55Q32.67-7.55 32.67-19.40L32.67-19.40Q32.67-31.00 23.13-31.16Z"
                                    fill="#10abbd" stroke="#10abbd" stroke-width="0.132" data-glyph-w="46.269"
                                    data-glyph-h="79.5" data-glyph-ascender="68.2905" data-glyph-descender="-11.2095"
                                    data-kerning="0"
                                    style="transform: scale(1); opacity: 1; transform-origin: 23.1345px 0px;"></path>
                            </g>
                            <g transform="translate(103.35 76) ">
                                <path
                                    d="M5.17 0L5.17-38.72L15.82-38.72L15.82 0L5.17 0ZM15.82-42.69L5.17-42.69L5.17-53.03L15.82-53.03L15.82-42.69Z"
                                    fill="#10abbd" stroke="#10abbd" stroke-width="0.132"
                                    data-glyph-w="21.147000000000002" data-glyph-h="79.5" data-glyph-ascender="68.2905"
                                    data-glyph-descender="-11.2095" data-kerning="0"
                                    style="transform: scale(1); opacity: 1; transform-origin: 10.5735px 0px;"></path>
                            </g>
                            <g transform="translate(124.497 76) ">
                                <path
                                    d="M21.15-38.72L31.16-38.72L31.16-53.03L41.74-53.03L41.74 0L23.45 0Q17.89 0 15.03-0.87L15.03-0.87Q8.27-3.02 4.93-9.30L4.93-9.30Q2.62-13.52 2.62-19.64L2.62-19.64Q2.62-29.57 9.30-35.06L9.30-35.06Q13.67-38.72 21.15-38.72L21.15-38.72ZM23.45-8.27L31.16-8.27L31.16-30.45L23.45-30.45Q18.36-30.45 15.74-27.03L15.74-27.03Q13.44-24.17 13.44-19.64L13.44-19.64Q13.44-13.04 17.25-10.18L17.25-10.18Q19.88-8.27 23.45-8.27L23.45-8.27Z"
                                    fill="#10abbd" stroke="#10abbd" stroke-width="0.132"
                                    data-glyph-w="46.984500000000004" data-glyph-h="79.5" data-glyph-ascender="68.2905"
                                    data-glyph-descender="-11.2095" data-kerning="0"
                                    style="transform: scale(1); opacity: 1; transform-origin: 23.4923px 0px;"></path>
                            </g>
                            <!--  -->
                            <g transform="translate(155 98) ">
                                    <path
                                    d="M26.16-53.03L45.16-53.03L45.16-43.57L26.16-43.57Z"
                                    fill="#10abbd" stroke="#10abbd" stroke-width="0.132" data-glyph-w="48.654"
                                    data-glyph-h="79.5" data-glyph-ascender="68.2905" data-glyph-descender="-11.2095"
                                    data-kerning="0"
                                    style="transform: scale(1); opacity: 1; transform-origin: 24.327px 0px;"></path>
                            </g>
                            <!-- Elem -->
                            <g transform="translate(211.2315 76) ">
                                <path
                                    d="M26.16-53.03L45.16-53.03L45.16-43.57L30.45-43.57Q24.72-43.57 22.10-42.77Q19.48-41.98 17.73-39.67L17.73-39.67Q16.54-38.08 16.10-36.49Q15.66-34.90 15.34-31.08L15.34-31.08L45.16-31.08L45.16-21.62L15.34-21.62Q15.98-14.79 19.40-12.12Q22.82-9.46 31.00-9.46L31.00-9.46L45.16-9.46L45.16 0L30.45 0Q24.49 0 19.95-0.72L19.95-0.72Q12.80-1.91 8.59-7.00L8.59-7.00Q2.54-14.31 2.54-26.79L2.54-26.79Q2.54-40.62 11.05-48.34L11.05-48.34Q13.99-50.96 17.29-51.99Q20.59-53.03 26.16-53.03L26.16-53.03Z"
                                    fill="#10abbd" stroke="#10abbd" stroke-width="0.132" data-glyph-w="48.654"
                                    data-glyph-h="79.5" data-glyph-ascender="68.2905" data-glyph-descender="-11.2095"
                                    data-kerning="0"
                                    style="transform: scale(1); opacity: 1; transform-origin: 24.327px 0px;"></path>
                            </g>
                            <g transform="translate(259.88550000000004 76) ">
                                <path d="M15.82-53.03L15.82 0L5.17 0L5.17-53.03L15.82-53.03Z" fill="#10abbd"
                                    stroke="#10abbd" stroke-width="0.132" data-glyph-w="21.147000000000002"
                                    data-glyph-h="79.5" data-glyph-ascender="68.2905" data-glyph-descender="-11.2095"
                                    data-kerning="0"
                                    style="transform: scale(1); opacity: 1; transform-origin: 10.5735px 0px;"></path>
                            </g>
                            <g transform="translate(281.0325 76) ">
                                <path
                                    d="M14.39-23.53L36.81-23.53L36.81-15.26L14.39-15.26Q14.71-11.45 16.85-9.86Q19.00-8.27 23.85-8.27L23.85-8.27L36.81-8.27L36.81 0L22.66 0Q18.05 0 15.14-0.83Q12.24-1.67 9.70-3.58L9.70-3.58Q2.62-9.06 2.62-19.88L2.62-19.88Q2.62-26.87 6.36-32.12L6.36-32.12Q8.90-35.70 12.48-37.21Q16.06-38.72 21.86-38.72L21.86-38.72L36.81-38.72L36.81-30.45L22.66-30.45Q18.29-30.45 16.54-28.98Q14.79-27.51 14.39-23.53L14.39-23.53Z"
                                    fill="#10abbd" stroke="#10abbd" stroke-width="0.132" data-glyph-w="40.3065"
                                    data-glyph-h="79.5" data-glyph-ascender="68.2905" data-glyph-descender="-11.2095"
                                    data-kerning="0"
                                    style="transform: scale(1); opacity: 1; transform-origin: 20.1532px 0px;"></path>
                            </g>
                            <g transform="translate(321.33900000000006 76) ">
                                <path
                                    d="M5.17 0L5.17-38.72L44.28-38.72Q49.61-38.72 52.39-37.92Q55.17-37.13 57.08-35.14L57.08-35.14Q60.58-31.32 60.58-24.64L60.58-24.64L60.58 0L49.93 0L49.93-22.98Q49.93-25.76 49.69-26.87Q49.45-27.98 48.57-28.86L48.57-28.86Q46.91-30.45 43.57-30.45L43.57-30.45L37.92-30.45L37.92 0L27.27 0L27.27-30.45L15.82-30.45L15.82 0L5.17 0Z"
                                    fill="#10abbd" stroke="#10abbd" stroke-width="0.132" data-glyph-w="65.349"
                                    data-glyph-h="79.5" data-glyph-ascender="68.2905" data-glyph-descender="-11.2095"
                                    data-kerning="0"
                                    style="transform: scale(1); opacity: 1; transform-origin: 32.6745px 0px;"></path>
                            </g>
                            <g transform="translate(370 98) ">
                                    <path
                                    d="M26.16-53.03L45.16-53.03L45.16-43.57L26.16-43.57Z"
                                    fill="#10abbd" stroke="#10abbd" stroke-width="0.132" data-glyph-w="48.654"
                                    data-glyph-h="79.5" data-glyph-ascender="68.2905" data-glyph-descender="-11.2095"
                                    data-kerning="0"
                                    style="transform: scale(1); opacity: 1; transform-origin: 24.327px 0px;"></path>
                            </g>
                            <!-- UI -->
                            <g transform="translate(423.3030000000001 76) ">
                                <path
                                    d="M4.77-53.03L15.98-53.03L15.98-21.23Q15.98-17.41 16.62-15.30Q17.25-13.20 18.76-11.69L18.76-11.69Q22.10-8.43 28.06-8.43L28.06-8.43Q31.88-8.43 34.70-9.74Q37.52-11.05 38.64-13.28L38.64-13.28Q39.75-15.50 39.75-21.23L39.75-21.23L39.75-53.03L51.04-53.03L51.04-21.78Q51.04-15.58 49.73-11.57Q48.42-7.55 45.71-5.09L45.71-5.09Q39.43 0.40 27.90 0.40L27.90 0.40Q15.58 0.40 9.94-5.01L9.94-5.01Q7.00-7.79 5.88-11.25Q4.77-14.71 4.77-20.99L4.77-20.99L4.77-53.03Z"
                                    fill="#10abbd" stroke="#10abbd" stroke-width="0.132" data-glyph-w="55.8885"
                                    data-glyph-h="79.5" data-glyph-ascender="68.2905" data-glyph-descender="-11.2095"
                                    data-kerning="0"
                                    style="transform: scale(1); opacity: 1; transform-origin: 27.9443px 0px;"></path>
                            </g>
                            <g transform="translate(479.1915000000001 76) ">
                                <path d="M16.70 0L5.41 0L5.41-53.03L16.70-53.03L16.70 0Z" fill="#10abbd"
                                    stroke="#10abbd" stroke-width="0.132" data-glyph-w="22.0215" data-glyph-h="79.5"
                                    data-glyph-ascender="68.2905" data-glyph-descender="-11.2095" data-kerning="0"
                                    style="transform: scale(1); opacity: 1; transform-origin: 11.0107px 0px;"></path>
                            </g>
                        </g>
                    </svg></g>
            </g>
        </g>
    </g>
    <!--logo -->
    <g id="shape_xBiPSnUTVm">
        <g>
            <g>
                <g transform="translate(8,10) scale(1,1)">
                    <svg version="1.1" id="图层_1" xmlns="http://www.w3.org/2000/svg"
                        xmlns:xlink="http://www.w3.org/1999/xlink" x="0px" y="0px" viewBox="0 0 75 87.8"
                        style="enable-background:new 0 0 75 87.8;" xml:space="preserve" width="106.84391823863061"
                        height="125.0786136180273" class="style-removed" preserveAspectRatio="none"
                        data-parent="shape_xBiPSnUTVm">
                        <g>
                            <polygon points="42.8,0 42.8,6.7 25.5,24 12.8,11.3 24.1,0 	" fill="#5CE1E6"
                                stroke-width="0"></polygon>
                            <polygon points="75,11.3 65.6,20.7 58.9,20.7 45,6.7 45,0 63.7,0 	" fill="#5CE1E6"
                                stroke-width="0"></polygon>
                            <polygon points="24,25.5 6.7,42.8 0,42.8 0,24.1 11.3,12.8 	" fill="#5CE1E6"
                                stroke-width="0"></polygon>
                            <polygon points="42.8,81.1 42.8,87.8 24.1,87.8 12.8,76.5 22.2,67.1 25.5,63.8 	"
                                fill="#5CE1E6" stroke-width="0"></polygon>
                            <polygon points="24,62.3 11.3,75 0,63.7 0,45 6.7,45 	" fill="#5CE1E6" stroke-width="0">
                            </polygon>
                            <polygon points="75,76.5 63.7,87.8 45,87.8 45,81.1 58.9,67.1 65.6,67.1 	" fill="#5CE1E6"
                                stroke-width="0"></polygon>
                            <g>
                                <path d="M65.6,67.1H47.7L45,69.8v18L65.6,67.1L65.6,67.1z M31.1,58.1l-5.6,5.6l-3.3,3.3l20.7,20.7v-18L31.1,58.1z
			 M18,44.9H0l20.7,20.7l3.3-3.3l5.7-5.6L18,44.9z M24,25.5l-3.3-3.3L0,42.8h18l11.7-11.7L24,25.5z M45,0v18l2.7,2.7h18L45,0z
			 M22.2,20.7l3.3,3.3l5.6,5.6L42.8,18V0L22.2,20.7z" fill="#10ABBD" stroke-width="0"></path>
                            </g>
                        </g>
                    </svg></g>
            </g>
        </g>
    </g>
</svg>